<svg id="Layer" enable-background="new 0 0 64 64" height="512" viewBox="0 0 64 64" width="512" xmlns="http://www.w3.org/2000/svg"><path d="m54.725 13.088c-.107-.114-.228-.21-.356-.294-.665-.492-1.48-.794-2.369-.794h-40c-.889 0-1.704.302-2.369.795-.128.084-.248.18-.356.294-.78.729-1.275 1.76-1.275 2.911v32c0 2.206 1.794 4 4 4h40c2.206 0 4-1.794 4-4v-32c0-1.151-.495-2.182-1.275-2.912zm-7.703 2.912-13.947 8.7c-.651.416-1.496.416-2.164-.01l-13.932-8.69zm-3.022 32h-24v-15.4l8.755 5.446c1.971 1.27 4.519 1.269 6.465.017l8.78-5.463zm4 0v-19c0-.727-.394-1.396-1.029-1.748-.634-.353-1.411-.335-2.028.05l-11.862 7.381c-.656.422-1.505.423-2.188-.017l-11.837-7.364c-.617-.385-1.393-.402-2.028-.05-.634.352-1.028 1.021-1.028 1.748v19h-4l-.002-30.392 16.781 10.467c.98.624 2.104.936 3.226.936 1.118 0 2.233-.31 3.202-.926l16.793-10.475v30.39z"/></svg>